<svg width="515" height="328" xmlns="http://www.w3.org/2000/svg">

 <g>
  <title>background</title>
  <rect fill="none" id="canvas_background" height="330" width="517" y="-1" x="-1"/>
 </g>
 <g>
  <title>Layer 1</title>
  <path id="svg_1" fill="white" d="m57.6,161c0,-13 2.2,-25.7 6.6,-38.1c4.6,-12.6 11.2,-24 19.8,-34.2c8.6,-10.4 19.2,-18.6 31.8,-24.6c12.6,-6.2 26.9,-9.3 42.9,-9.3c19,0 35.2,4.4 48.6,13.2c13.6,8.6 23.6,19.7 30,33.3l-16.5,10.2c-4.6,-9.4 -10.4,-16.8 -17.4,-22.2c-7,-5.6 -14.5,-9.6 -22.5,-12c-7.8,-2.4 -15.6,-3.6 -23.4,-3.6c-12.8,0 -24.1,2.6 -33.9,7.8c-9.8,5 -18.1,11.8 -24.9,20.4c-6.6,8.4 -11.6,17.9 -15,28.5c-3.4,10.4 -5.1,21 -5.1,31.8c0,11.8 2,23.1 6,33.9c4,10.8 9.6,20.4 16.8,28.8c7.2,8.2 15.6,14.8 25.2,19.8c9.8,4.8 20.4,7.2 31.8,7.2c8,0 16.2,-1.4 24.6,-4.2c8.4,-2.8 16.2,-7.1 23.4,-12.9c7.4,-5.8 13.3,-13.3 17.7,-22.5l17.4,9c-4.4,10.6 -11.2,19.6 -20.4,27c-9.2,7.4 -19.5,13 -30.9,16.8c-11.2,3.8 -22.2,5.7 -33,5.7c-14.6,0 -28,-3.1 -40.2,-9.3c-12.2,-6.4 -22.8,-14.8 -31.8,-25.2c-8.8,-10.6 -15.6,-22.4 -20.4,-35.4c-4.8,-13.2 -7.2,-26.5 -7.2,-39.9z"/>
  <path id="svg_2" fill="white" d="m151.3,326.25c-21.3,0 -41.1,-4.5 -59.4,-13.5c-18.3,-9.3 -34.2,-21.75 -47.7,-37.35c-13.5,-15.6 -24,-33 -31.5,-52.2c-7.2,-19.2 -10.8,-39 -10.8,-59.4c0,-21.6 3.6,-42 10.8,-61.2c7.5,-19.5 17.85,-36.75 31.05,-51.75c13.2,-15 28.8,-26.85 46.8,-35.55c18,-8.7 37.65,-13.05 58.95,-13.05c31.5,0 57.15,6.45 76.95,19.35c19.8,12.9 34.8,29.7 45,50.4l-24.3,16.2c-10.2,-19.8 -23.85,-34.35 -40.95,-43.65c-17.1,-9.3 -36.15,-13.95 -57.15,-13.95c-17.7,0 -33.75,3.75 -48.15,11.25c-14.1,7.5 -26.25,17.55 -36.45,30.15c-10.2,12.6 -18,26.85 -23.4,42.75c-5.1,15.9 -7.65,32.4 -7.65,49.5c0,18 3,35.1 9,51.3c6,15.9 14.55,30.15 25.65,42.75c11.1,12.3 23.85,22.05 38.25,29.25c14.7,6.9 30.45,10.35 47.25,10.35c19.5,0 37.95,-4.8 55.35,-14.4c17.4,-9.9 34.05,-25.05 49.95,-45.45l0,33.3c-30.3,36.6 -66.15,54.9 -107.55,54.9zm102.6,-135l-71.1,0l0,-24.3l97.65,0l0,157.05l-26.55,0l0,-132.75z"/>
  <path id="svg_3" fill="white" d="m269.5,146.3c-3,0 -5.72,-0.6 -8.16,-1.8c-2.44,-1.2 -4.54,-2.82 -6.3,-4.86c-1.76,-2.08 -3.12,-4.4 -4.08,-6.96c-0.96,-2.6 -1.44,-5.26 -1.44,-7.98c0,-2.84 0.5,-5.54 1.5,-8.1c1,-2.6 2.4,-4.9 4.2,-6.9c1.84,-2.04 3.98,-3.64 6.42,-4.8c2.44,-1.2 5.08,-1.8 7.92,-1.8c3,0 5.72,0.62 8.16,1.86c2.44,1.24 4.52,2.9 6.24,4.98c1.76,2.08 3.12,4.4 4.08,6.96c0.96,2.56 1.44,5.18 1.44,7.86c0,2.84 -0.5,5.56 -1.5,8.16c-1,2.56 -2.4,4.86 -4.2,6.9c-1.8,2 -3.92,3.58 -6.36,4.74c-2.44,1.16 -5.08,1.74 -7.92,1.74zm-15.78,-21.6c0,2.32 0.38,4.56 1.14,6.72c0.76,2.12 1.84,4.02 3.24,5.7c1.4,1.64 3.06,2.96 4.98,3.96c1.96,0.96 4.1,1.44 6.42,1.44c2.44,0 4.62,-0.5 6.54,-1.5c1.96,-1.04 3.62,-2.4 4.98,-4.08c1.4,-1.72 2.46,-3.64 3.18,-5.76c0.72,-2.12 1.08,-4.28 1.08,-6.48c0,-2.32 -0.38,-4.54 -1.14,-6.66c-0.76,-2.12 -1.86,-4.02 -3.3,-5.7c-1.4,-1.68 -3.06,-3 -4.98,-3.96c-1.92,-0.96 -4.04,-1.44 -6.36,-1.44c-2.4,0 -4.58,0.5 -6.54,1.5c-1.92,1 -3.58,2.36 -4.98,4.08c-1.36,1.68 -2.42,3.58 -3.18,5.7c-0.72,2.12 -1.08,4.28 -1.08,6.48zm43.679,21.3l0,-42.6l14.46,0c4.52,0 8.28,0.96 11.28,2.88c3.04,1.88 5.32,4.44 6.84,7.68c1.52,3.2 2.28,6.76 2.28,10.68c0,4.32 -0.84,8.08 -2.52,11.28c-1.64,3.2 -4,5.68 -7.08,7.44c-3.04,1.76 -6.64,2.64 -10.8,2.64l-14.46,0zm30.66,-21.36c0,-3.4 -0.64,-6.42 -1.92,-9.06c-1.24,-2.64 -3.06,-4.7 -5.46,-6.18c-2.4,-1.52 -5.34,-2.28 -8.82,-2.28l-10.26,0l0,35.16l10.26,0c3.52,0 6.48,-0.78 8.88,-2.34c2.4,-1.56 4.22,-3.66 5.46,-6.3c1.24,-2.68 1.86,-5.68 1.86,-9zm12.23,21.36l0,-42.6l4.2,0l0,42.6l-4.2,0zm19.083,-34.86l0,34.86l-4.2,0l0,-42.6l3.48,0l27.96,35.52l0,-35.46l4.2,0l0,42.54l-3.9,0l-27.54,-34.86zm59.248,35.16c-2.84,0 -5.48,-0.6 -7.92,-1.8c-2.44,-1.24 -4.56,-2.9 -6.36,-4.98c-1.8,-2.08 -3.2,-4.4 -4.2,-6.96c-0.96,-2.56 -1.44,-5.2 -1.44,-7.92c0,-2.88 0.48,-5.6 1.44,-8.16c1,-2.6 2.38,-4.9 4.14,-6.9c1.76,-2 3.84,-3.58 6.24,-4.74c2.4,-1.16 5.02,-1.74 7.86,-1.74c4.2,0 7.62,0.86 10.26,2.58c2.64,1.72 4.64,3.96 6,6.72l-3.24,2.16c-1.36,-2.64 -3.18,-4.58 -5.46,-5.82c-2.28,-1.24 -4.82,-1.86 -7.62,-1.86c-2.36,0 -4.5,0.5 -6.42,1.5c-1.88,1 -3.5,2.34 -4.86,4.02c-1.36,1.68 -2.4,3.58 -3.12,5.7c-0.68,2.12 -1.02,4.32 -1.02,6.6c0,2.4 0.4,4.68 1.2,6.84c0.8,2.12 1.94,4.02 3.42,5.7c1.48,1.64 3.18,2.94 5.1,3.9c1.96,0.92 4.06,1.38 6.3,1.38c2.6,0 5.06,-0.64 7.38,-1.92c2.32,-1.32 4.54,-3.34 6.66,-6.06l0,4.44c-4.04,4.88 -8.82,7.32 -14.34,7.32zm13.68,-18l-9.48,0l0,-3.24l13.02,0l0,20.94l-3.54,0l0,-17.7z"/>
  <path id="svg_4" fill="white" d="m319.375,228.445c-4.45,0 -8.485,-0.89 -12.104,-2.67c-3.619,-1.78 -6.734,-4.183 -9.345,-7.209c-2.611,-3.085 -4.628,-6.527 -6.052,-10.324c-1.424,-3.857 -2.136,-7.802 -2.136,-11.837c0,-4.213 0.742,-8.218 2.225,-12.015c1.483,-3.857 3.56,-7.268 6.23,-10.235c2.729,-3.026 5.904,-5.399 9.523,-7.12c3.619,-1.78 7.535,-2.67 11.748,-2.67c4.45,0 8.485,0.92 12.104,2.759c3.619,1.839 6.705,4.302 9.256,7.387c2.611,3.085 4.628,6.527 6.052,10.324c1.424,3.797 2.136,7.684 2.136,11.659c0,4.213 -0.742,8.247 -2.225,12.104c-1.483,3.797 -3.56,7.209 -6.23,10.235c-2.67,2.967 -5.815,5.31 -9.434,7.031c-3.619,1.721 -7.535,2.581 -11.748,2.581zm-23.407,-32.04c0,3.441 0.564,6.764 1.691,9.968c1.127,3.145 2.729,5.963 4.806,8.455c2.077,2.433 4.539,4.391 7.387,5.874c2.907,1.424 6.082,2.136 9.523,2.136c3.619,0 6.853,-0.742 9.701,-2.225c2.907,-1.543 5.37,-3.56 7.387,-6.052c2.077,-2.551 3.649,-5.399 4.717,-8.544c1.068,-3.145 1.602,-6.349 1.602,-9.612c0,-3.441 -0.564,-6.734 -1.691,-9.879c-1.127,-3.145 -2.759,-5.963 -4.895,-8.455c-2.077,-2.492 -4.539,-4.45 -7.387,-5.874c-2.848,-1.424 -5.993,-2.136 -9.434,-2.136c-3.56,0 -6.794,0.742 -9.701,2.225c-2.848,1.483 -5.31,3.501 -7.387,6.052c-2.017,2.492 -3.59,5.31 -4.717,8.455c-1.068,3.145 -1.602,6.349 -1.602,9.612zm82.023,-31.595l5.251,0l26.255,63.19l-6.586,0l-8.188,-19.758l-28.391,0l-8.099,19.758l-6.675,0l26.433,-63.19zm15.308,38.537l-12.727,-31.239l-12.905,31.239l25.632,0zm25.257,24.653l0,-63.19l6.23,0l0,57.672l36.49,0l0,5.518l-42.72,0zm88.822,-51.353c-0.89,-1.009 -1.928,-1.899 -3.115,-2.67c-1.186,-0.831 -2.521,-1.543 -4.005,-2.136c-1.483,-0.593 -3.085,-1.068 -4.806,-1.424c-1.661,-0.356 -3.441,-0.534 -5.34,-0.534c-5.518,0 -9.582,1.068 -12.193,3.204c-2.551,2.077 -3.827,4.925 -3.827,8.544c0,2.492 0.594,4.45 1.78,5.874c1.246,1.424 3.175,2.581 5.785,3.471c2.611,0.89 5.934,1.81 9.968,2.759c4.51,0.949 8.396,2.077 11.659,3.382c3.264,1.305 5.785,3.085 7.565,5.34c1.78,2.195 2.67,5.192 2.67,8.989c0,2.907 -0.563,5.429 -1.691,7.565c-1.127,2.136 -2.699,3.916 -4.717,5.34c-2.017,1.424 -4.42,2.492 -7.209,3.204c-2.788,0.653 -5.844,0.979 -9.167,0.979c-3.263,0 -6.408,-0.326 -9.434,-0.979c-2.966,-0.712 -5.785,-1.721 -8.455,-3.026c-2.67,-1.365 -5.162,-3.085 -7.476,-5.162l3.115,-5.073c1.128,1.187 2.463,2.314 4.005,3.382c1.602,1.009 3.353,1.928 5.251,2.759c1.958,0.831 4.035,1.483 6.23,1.958c2.255,0.415 4.569,0.623 6.942,0.623c5.044,0 8.96,-0.92 11.748,-2.759c2.848,-1.839 4.272,-4.569 4.272,-8.188c0,-2.611 -0.712,-4.687 -2.136,-6.23c-1.424,-1.602 -3.56,-2.907 -6.408,-3.916c-2.848,-1.009 -6.348,-1.988 -10.502,-2.937c-4.39,-1.009 -8.099,-2.136 -11.125,-3.382c-3.026,-1.246 -5.31,-2.878 -6.853,-4.895c-1.483,-2.077 -2.225,-4.806 -2.225,-8.188c0,-3.916 0.95,-7.209 2.848,-9.879c1.958,-2.729 4.628,-4.776 8.01,-6.141c3.382,-1.424 7.269,-2.136 11.659,-2.136c2.789,0 5.37,0.297 7.743,0.89c2.433,0.534 4.658,1.335 6.675,2.403c2.077,1.068 4.005,2.403 5.785,4.005l-3.026,4.984z"/>
 </g>
</svg>